<svg width="87" height="87" viewBox="0 0 87 87" fill="none" xmlns="http://www.w3.org/2000/svg">
<path d="M40.125 36.2845C39.8802 36.0392 39.4798 36.0392 39.235 36.2849L37.8633 37.6619C37.6185 37.9076 37.6185 38.3095 37.8633 38.5553L46.7247 47.45C46.969 47.6958 47.3699 47.6958 47.6142 47.45L48.9864 46.0731C49.2312 45.8273 49.2312 45.4254 48.9864 45.1797L40.125 36.2845Z" fill="#4DDFBC"/>
<path d="M45.3535 38.555L46.7248 39.932C46.9696 40.1777 47.3699 40.1777 47.6147 39.932L57.9591 29.5482C58.2034 29.3024 58.6042 29.3024 58.8485 29.5482L63.1871 33.9033C63.4319 34.1485 63.4319 34.5509 63.1871 34.7961L60.3324 37.6617C60.0872 37.9074 60.0872 38.3093 60.332 38.555L61.7037 39.932C61.9485 40.1777 62.3488 40.1777 62.5936 39.932L67.71 34.7966C67.9548 34.5509 67.9548 34.149 67.71 33.9033L58.849 25.008C58.6042 24.7623 58.2039 24.7623 57.9591 25.008L45.3535 37.6617C45.1087 37.9074 45.1087 38.3093 45.3535 38.555Z" fill="#35568D"/>
<path d="M46.7237 32.4138C46.9685 32.6595 47.3689 32.6595 47.6137 32.4138L48.9854 31.0368C49.2302 30.7911 49.2302 30.3892 48.9854 30.1435L38.6411 19.7596C38.3963 19.5139 38.3963 19.112 38.6411 18.8663L42.9791 14.5117C43.2239 14.2664 43.6243 14.2664 43.8691 14.5117L48.2076 18.8668C48.4524 19.1125 48.4524 19.5144 48.2076 19.7601L45.353 22.6252C45.1082 22.8709 45.1082 23.2728 45.353 23.5185L46.7242 24.8955C46.969 25.1412 47.3694 25.1412 47.6142 24.8955L52.7305 19.7601C52.9753 19.5144 52.9753 19.1125 52.7305 18.8668L43.8696 9.97153C43.6248 9.72629 43.2244 9.72629 42.9796 9.97153L34.1182 18.8668C33.8734 19.1125 33.8734 19.5144 34.1182 19.7601L46.7237 32.4138Z" fill="#4DDFBC"/>
<path d="M41.4962 30.1433L40.1249 28.7668C39.8801 28.5211 39.4798 28.5211 39.235 28.7668L30.374 37.6616C30.1292 37.9073 30.1292 38.3092 30.374 38.5554L31.7453 39.9319C31.9901 40.1776 32.3904 40.1776 32.6352 39.9319L41.4962 31.0366C41.741 30.7909 41.741 30.389 41.4962 30.1433Z" fill="#35568D"/>
<path d="M31.7453 47.4503C31.9901 47.6955 32.3904 47.6955 32.6352 47.4503L34.0065 46.0733C34.2513 45.8276 34.2513 45.4257 34.0065 45.18L23.6626 34.7966C23.4178 34.5509 23.4178 34.149 23.6626 33.9033L28.0007 29.5482C28.2455 29.3029 28.6458 29.3029 28.8906 29.5482L31.7453 32.4142C31.9901 32.6599 32.3904 32.6599 32.6352 32.4142L34.0065 31.0372C34.2513 30.791 34.2513 30.3891 34.0065 30.1434L28.8901 25.008C28.6458 24.7623 28.245 24.7623 28.0007 25.008L19.1397 33.9028C18.8949 34.148 18.8949 34.5504 19.1392 34.7957L31.7453 47.4503Z" fill="#4DDFBC"/>
<path d="M41.4961 45.1794L40.1249 43.803C39.8801 43.5572 39.4797 43.5572 39.2349 43.803L28.8906 54.1868C28.6458 54.4325 28.2454 54.4325 28.0006 54.1868L23.6625 49.8317C23.4177 49.5859 23.4177 49.1841 23.6625 48.9383L26.5172 46.0733C26.762 45.8275 26.762 45.4257 26.5172 45.1799L25.1455 43.803C24.9007 43.5572 24.5003 43.5572 24.2555 43.803L19.1397 48.9383C18.8949 49.1841 18.8949 49.5859 19.1397 49.8322L28.0006 58.7269C28.2454 58.9727 28.6458 58.9727 28.8906 58.7269L41.4961 46.0728C41.7409 45.8275 41.7409 45.4252 41.4961 45.1794Z" fill="#35568D"/>
<path d="M40.1245 51.3213C39.8797 51.0755 39.4793 51.0755 39.2345 51.3213L37.8628 52.6982C37.618 52.944 37.618 53.3458 37.8628 53.5916L48.2071 63.9754C48.4519 64.2207 48.4519 64.623 48.2071 64.8683L43.8691 69.2234C43.6243 69.4686 43.2239 69.4686 42.9791 69.2234L38.6411 64.8683C38.3963 64.623 38.3963 64.2207 38.6411 63.9749L41.4957 61.1094C41.74 60.8641 41.74 60.4618 41.4957 60.216L40.124 58.8395C39.8797 58.5938 39.4788 58.5938 39.2345 58.8395L34.1182 63.9754C33.8734 64.2207 33.8734 64.623 34.1182 64.8683L42.9791 73.7635C43.2239 74.0088 43.6243 74.0088 43.8691 73.7635L52.73 64.8683C52.9748 64.623 52.9748 64.2207 52.73 63.9754L40.1245 51.3213Z" fill="#4DDFBC"/>
<path d="M45.3525 53.5918L46.7238 54.9683C46.9686 55.214 47.3689 55.214 47.6137 54.9683L56.4752 46.073C56.72 45.8273 56.72 45.4254 56.4752 45.1797L55.1034 43.8032C54.8587 43.5575 54.4583 43.5575 54.2135 43.8032L45.3525 52.6985C45.1077 52.9437 45.1077 53.3456 45.3525 53.5918Z" fill="#4DDFBC"/>
<path d="M55.104 36.2847C54.8592 36.0395 54.4588 36.0395 54.214 36.2852L52.8428 37.6617C52.598 37.9074 52.598 38.3093 52.8428 38.555L63.1871 48.9384C63.4319 49.1841 63.4319 49.586 63.1871 49.8317L58.8491 54.1868C58.6043 54.4321 58.2039 54.4321 57.9591 54.1868L55.104 51.3208C54.8592 51.0755 54.4588 51.0755 54.214 51.3208L52.8428 52.6978C52.598 52.9435 52.598 53.3454 52.8428 53.5911L57.9591 58.727C58.2039 58.9727 58.6043 58.9727 58.8491 58.727L67.71 49.8322C67.9548 49.5865 67.9548 49.1846 67.71 48.9389L55.104 36.2847Z" fill="#4DDFBC"/>
</svg>
